<svg xmlns="http://www.w3.org/2000/svg" width="26" height="32" viewBox="0 0 26 32">
  <metadata><?xpacket begin="﻿" id="W5M0MpCehiHzreSzNTczkc9d"?>
<x:xmpmeta xmlns:x="adobe:ns:meta/" x:xmptk="Adobe XMP Core 5.6-c138 79.159824, 2016/09/14-01:09:01        ">
   <rdf:RDF xmlns:rdf="http://www.w3.org/1999/02/22-rdf-syntax-ns#">
      <rdf:Description rdf:about=""/>
   </rdf:RDF>
</x:xmpmeta>
                                                                                                    
                                                                                                    
                                                                                                    
                                                                                                    
                                                                                                    
                                                                                                    
                                                                                                    
                                                                                                    
                                                                                                    
                                                                                                    
                                                                                                    
                                                                                                    
                                                                                                    
                                                                                                    
                                                                                                    
                                                                                                    
                                                                                                    
                                                                                                    
                                                                                                    
                                                                                                    
                           
<?xpacket end="w"?></metadata>
<defs>
    <style>
      .cls-1 {
        fill: #ef4035;
        fill-rule: evenodd;
      }
    </style>
  </defs>
  <path id="Shield" class="cls-1" d="M1574,1340.01m24,0-23,0h-2v-13h2v13Zm24,0h-2v-13h2v13Zm-11.75,10h-2.5l-9.37-5.01c-2.22-1.33-2.38-2.78-2.38-4.99h2c0,2.03.13,2.54,1.5,3.33h0l8.75,4.67h1.5l8.75-4.67c1.37-.79,1.5-1.3,1.5-3.33h2c0,2.21-.16,3.66-2.38,4.99l-0.15.09Zm5.75-14h-14v-2h14v2Zm0,4h-14v-2h14v2Zm-7-8h-7v-2h7v2Zm13-7h-7a6.994,6.994,0,0,0-12,0h-7v-2h7a5,5,0,0,0,5-5h2a5,5,0,0,0,5,5h7v2Z" transform="translate(-1573 -1318)"/>
</svg>
