<svg xmlns="http://www.w3.org/2000/svg">
    <symbol id="chart" viewBox="0 0 32 32">
       <metadata><?xpacket begin="﻿" id="W5M0MpCehiHzreSzNTczkc9d"?> <x:xmpmeta xmlns:x="adobe:ns:meta/" x:xmptk="Adobe XMP Core 5.6-c138 79.159824, 2016/09/14-01:09:01        "> <rdf:RDF xmlns:rdf="http://www.w3.org/1999/02/22-rdf-syntax-ns#"> <rdf:Description rdf:about=""/> </rdf:RDF> </x:xmpmeta> <?xpacket end="w"?></metadata>  <path id="Chart" class="cls-1" d="M1152,1491.99a14,14,0,1,1,0-27.99v2a12,12,0,1,0,12,12h2A14.013,14.013,0,0,1,1152,1491.99Zm18-15.99h-16v-16h1c7.71,0,15,7.28,15,15v1Zm-14-2.01h11.96a13.9,13.9,0,0,0-11.96-11.95v11.95Z" transform="translate(-1138 -1460)"/> 
    </symbol>
    <symbol id="chemical-glass" viewBox="0 0 26 32">
       <metadata><?xpacket begin="﻿" id="W5M0MpCehiHzreSzNTczkc9d"?> <x:xmpmeta xmlns:x="adobe:ns:meta/" x:xmptk="Adobe XMP Core 5.6-c138 79.159824, 2016/09/14-01:09:01        "> <rdf:RDF xmlns:rdf="http://www.w3.org/1999/02/22-rdf-syntax-ns#"> <rdf:Description rdf:about=""/> </rdf:RDF> </x:xmpmeta> <?xpacket end="w"?></metadata>  <path id="Chemical_Glass" data-name="Chemical Glass" class="cls-1" d="M1160.96,1175h-11.99v-2h11.99v2Zm4.36,30h-20.69l-0.29-.29a8.137,8.137,0,0,1-.02-11.42l6.65-6.7V1177h1.99v10.41l-7.23,7.3a6.137,6.137,0,0,0-.25,8.29h18.99a6.157,6.157,0,0,0-.25-8.29l-7.23-7.3V1177h1.99v9.59l6.65,6.7a8.091,8.091,0,0,1-.02,11.42Zm-19.12-4.68a4.208,4.208,0,0,1-.21-1.33,3.978,3.978,0,0,1,1.16-2.87l6.99-7,1.42,1.41-7,7a2.081,2.081,0,0,0-.58,1.46,2.555,2.555,0,0,0,.11.69Z" transform="translate(-1142 -1173)"/> 
    </symbol>
    <symbol id="tools" viewBox="0 0 32 32">
       <metadata><?xpacket begin="﻿" id="W5M0MpCehiHzreSzNTczkc9d"?> <x:xmpmeta xmlns:x="adobe:ns:meta/" x:xmptk="Adobe XMP Core 5.6-c138 79.159824, 2016/09/14-01:09:01        "> <rdf:RDF xmlns:rdf="http://www.w3.org/1999/02/22-rdf-syntax-ns#"> <rdf:Description rdf:about=""/> </rdf:RDF> </x:xmpmeta> <?xpacket end="w"?></metadata>  <path id="Tools" class="cls-1" d="M1429.01,1176.76h0a2.965,2.965,0,0,1-2.12-.89l-1.41-1.42,4.23-4.28,1.42,1.43a3.03,3.03,0,0,1,0,4.27A2.982,2.982,0,0,1,1429.01,1176.76Zm-0.71-2.31a0.99,0.99,0,0,0,.71.29h0a0.967,0.967,0,0,0,.7-0.29,1.022,1.022,0,0,0,.3-0.72,1,1,0,0,0-.3-0.71h0Zm7.75,7.58-6.32-6.15,1.38-1.45,6.33,6.15Zm15.24,15.65-5.73-6.05,1.41-1.42,5.73,6.05Zm0.71,4.33a4.968,4.968,0,0,1-3.53-1.47l-6.34-6.68,1.41-1.42,6.35,6.67a2.979,2.979,0,0,0,4.23,0,3.051,3.051,0,0,0-.01-4.29l-6.33-6.66,1.41-1.42,6.34,6.66a5.076,5.076,0,0,1,0,7.13A4.961,4.961,0,0,1,1452,1202.01Zm-3.49-16.7h0a6.9,6.9,0,0,1-4.95-2.07,7.086,7.086,0,0,1,0-9.97l1.83-1.85,1.41,1.43-1.83,1.84a5.082,5.082,0,0,0,0,7.13,4.962,4.962,0,0,0,3.54,1.47h0a4.956,4.956,0,0,0,3.53-1.47l1.82-1.85,1.42,1.43-1.83,1.84A6.891,6.891,0,0,1,1448.51,1185.31Zm6.77-3.91-2.12-2.14-0.71.71a3.918,3.918,0,0,1-2.82,1.19h-0.01a3.959,3.959,0,0,1-2.82-1.19,4.056,4.056,0,0,1,0-5.7l0.71-.71-2.12-2.14,1.41-1.42,3.53,3.56-2.12,2.14a2.015,2.015,0,0,0,1.41,3.44h0.01a1.983,1.983,0,0,0,1.41-.59l2.12-2.14,3.53,3.56Zm-24.24,16.49h-2v-2.02h2v2.02Zm11.09-9.82-3.97-3.95,1.41-1.44,3.96,3.96Zm-12.12,13.88a4.922,4.922,0,0,1-3.53-1.47,5.058,5.058,0,0,1,0-7.13l0.11-.1,10.34-7.58,1.18,1.63-10.27,7.53a3.032,3.032,0,0,0,.05,4.22,3.03,3.03,0,0,0,4.18.05l7.46-10.35,1.62,1.18-7.61,10.55A4.939,4.939,0,0,1,1430.01,1201.95Z" transform="translate(-1425 -1170)"/> 
    </symbol></svg>