<svg xmlns="http://www.w3.org/2000/svg">
    <symbol id="antenna" viewBox="0 0 31.969 32">
       <metadata><?xpacket begin="﻿" id="W5M0MpCehiHzreSzNTczkc9d"?> <x:xmpmeta xmlns:x="adobe:ns:meta/" x:xmptk="Adobe XMP Core 5.6-c138 79.159824, 2016/09/14-01:09:01        "> <rdf:RDF xmlns:rdf="http://www.w3.org/1999/02/22-rdf-syntax-ns#"> <rdf:Description rdf:about=""/> </rdf:RDF> </x:xmpmeta> <?xpacket end="w"?></metadata>  <path id="Antenna_1" data-name="Antenna 1" class="cls-1" d="M1006,1349a11,11,0,0,1-7.781-18.78l3.531-3.53,15.56,15.55-3.53,3.54A10.922,10.922,0,0,1,1006,1349Zm-4.25-19.49-2.117,2.13a9,9,0,1,0,12.727,12.72l2.12-2.12Zm-0.7,13.44a7,7,0,0,1,0-9.9l1.41,1.41a5.016,5.016,0,0,0,0,7.08Zm11.78-7.12-1.42-1.42a1.98,1.98,0,0,0,0-2.82,2.041,2.041,0,0,0-2.83,0l-1.41-1.42a4.1,4.1,0,0,1,5.66,0A4.008,4.008,0,0,1,1012.83,1335.83Zm6.13-2.92a8.988,8.988,0,0,0-8.97-9v-2a10.987,10.987,0,0,1,10.97,11h-2Zm6.04,0.04a13.975,13.975,0,0,0-13.95-13.95v-2a15.981,15.981,0,0,1,15.95,15.95h-2Z" transform="translate(-995.031 -1317)"/>
    </symbol>
    <symbol id="bulb" viewBox="0 0 20 31.97">
       <metadata><?xpacket begin="﻿" id="W5M0MpCehiHzreSzNTczkc9d"?> <x:xmpmeta xmlns:x="adobe:ns:meta/" x:xmptk="Adobe XMP Core 5.6-c138 79.159824, 2016/09/14-01:09:01        "> <rdf:RDF xmlns:rdf="http://www.w3.org/1999/02/22-rdf-syntax-ns#"> <rdf:Description rdf:about=""/> </rdf:RDF> </x:xmpmeta> <?xpacket end="w"?></metadata>  <path id="Bulb" class="cls-1" d="M872.91,1471.45l-1.785-.9,2.532-4.9a8,8,0,1,0-11.314,0l0.114,0.12,2.4,4.78-1.787.9-2.263-4.5a10,10,0,1,1,14.374,0Zm-8.79,3.51-0.24-1.99,8-.97,0.24,1.99Zm0,3-0.24-1.99,8-.97,0.24,1.99Zm3.856,4.04a3.006,3.006,0,0,1-3-3h2a1,1,0,0,0,2,0h2A3.006,3.006,0,0,1,867.976,1482ZM864,1460h-2a6.005,6.005,0,0,1,6-6v2A4,4,0,0,0,864,1460Z" transform="translate(-858 -1450.03)"/>
    </symbol>
    <symbol id="chart" viewBox="0 0 32 32">
       <metadata><?xpacket begin="﻿" id="W5M0MpCehiHzreSzNTczkc9d"?> <x:xmpmeta xmlns:x="adobe:ns:meta/" x:xmptk="Adobe XMP Core 5.6-c138 79.159824, 2016/09/14-01:09:01        "> <rdf:RDF xmlns:rdf="http://www.w3.org/1999/02/22-rdf-syntax-ns#"> <rdf:Description rdf:about=""/> </rdf:RDF> </x:xmpmeta> <?xpacket end="w"?></metadata>  <path id="Chart" class="cls-1" d="M1152,1491.99a14,14,0,1,1,0-27.99v2a12,12,0,1,0,12,12h2A14.013,14.013,0,0,1,1152,1491.99Zm18-15.99h-16v-16h1c7.71,0,15,7.28,15,15v1Zm-14-2.01h11.96a13.9,13.9,0,0,0-11.96-11.95v11.95Z" transform="translate(-1138 -1460)"/>
    </symbol>
    <symbol id="chemicalclass" viewBox="0 0 26 32">
       <metadata><?xpacket begin="﻿" id="W5M0MpCehiHzreSzNTczkc9d"?> <x:xmpmeta xmlns:x="adobe:ns:meta/" x:xmptk="Adobe XMP Core 5.6-c138 79.159824, 2016/09/14-01:09:01        "> <rdf:RDF xmlns:rdf="http://www.w3.org/1999/02/22-rdf-syntax-ns#"> <rdf:Description rdf:about=""/> </rdf:RDF> </x:xmpmeta> <?xpacket end="w"?></metadata>  <path id="Chemical_Glass" data-name="Chemical Glass" class="cls-1" d="M1160.96,1175h-11.99v-2h11.99v2Zm4.36,30h-20.69l-0.29-.29a8.137,8.137,0,0,1-.02-11.42l6.65-6.7V1177h1.99v10.41l-7.23,7.3a6.137,6.137,0,0,0-.25,8.29h18.99a6.157,6.157,0,0,0-.25-8.29l-7.23-7.3V1177h1.99v9.59l6.65,6.7a8.091,8.091,0,0,1-.02,11.42Zm-19.12-4.68a4.208,4.208,0,0,1-.21-1.33,3.978,3.978,0,0,1,1.16-2.87l6.99-7,1.42,1.41-7,7a2.081,2.081,0,0,0-.58,1.46,2.555,2.555,0,0,0,.11.69Z" transform="translate(-1142 -1173)"/>
    </symbol>
    <symbol id="layers" viewBox="0 0 30 26">
       <metadata><?xpacket begin="﻿" id="W5M0MpCehiHzreSzNTczkc9d"?> <x:xmpmeta xmlns:x="adobe:ns:meta/" x:xmptk="Adobe XMP Core 5.6-c138 79.159824, 2016/09/14-01:09:01        "> <rdf:RDF xmlns:rdf="http://www.w3.org/1999/02/22-rdf-syntax-ns#"> <rdf:Description rdf:about=""/> </rdf:RDF> </x:xmpmeta> <?xpacket end="w"?></metadata>  <path id="Layers" class="cls-1" d="M1298.02,1339.12l-15-8.06,15-8.06,15,8.06Zm-10.82-8.06,10.82,5.81,10.81-5.81-10.81-5.81Zm10.82,12.86-14.34-7.02,0.87-1.78,13.47,6.59,13.46-6.59,0.87,1.78Zm0,5.08-14.34-7.02,0.87-1.78,13.47,6.59,13.46-6.59,0.87,1.78Zm10.92-6.55" transform="translate(-1283 -1323)"/>
    </symbol>
    <symbol id="notes" viewBox="0 0 28 32">
       <metadata><?xpacket begin="﻿" id="W5M0MpCehiHzreSzNTczkc9d"?> <x:xmpmeta xmlns:x="adobe:ns:meta/" x:xmptk="Adobe XMP Core 5.6-c138 79.159824, 2016/09/14-01:09:01        "> <rdf:RDF xmlns:rdf="http://www.w3.org/1999/02/22-rdf-syntax-ns#"> <rdf:Description rdf:about=""/> </rdf:RDF> </x:xmpmeta> <?xpacket end="w"?></metadata>  <path id="Notes" class="cls-1" d="M1721,1202h-6v-6h6v6Zm-4-2h2v-2h-2v2Zm4-6h-6v-6h6v6Zm-4-2h2v-2h-2v2Zm26,15h-26v-2.95h2V1205h22v-28h-22v0.98h-2V1175h26v32Zm-22-21h-6v-6h6v6Zm-4-2h2v-2h-2v2Zm20,21h-2v-28h2v28Z" transform="translate(-1715 -1175)"/>
    </symbol>
    <symbol id="shield" viewBox="0 0 26 32">
       <metadata><?xpacket begin="﻿" id="W5M0MpCehiHzreSzNTczkc9d"?> <x:xmpmeta xmlns:x="adobe:ns:meta/" x:xmptk="Adobe XMP Core 5.6-c138 79.159824, 2016/09/14-01:09:01        "> <rdf:RDF xmlns:rdf="http://www.w3.org/1999/02/22-rdf-syntax-ns#"> <rdf:Description rdf:about=""/> </rdf:RDF> </x:xmpmeta> <?xpacket end="w"?></metadata>  <path  d="M23.619,27.002 L23.471,27.089 L14.250,32.009 L11.750,32.009 L2.381,27.002 C0.162,25.674 0.000,24.221 0.000,22.009 L0.000,9.009 L2.000,9.009 L2.000,22.009 C2.000,24.037 2.129,24.547 3.499,25.339 L3.504,25.342 L12.250,30.009 L13.750,30.009 L22.501,25.339 C23.871,24.547 24.000,24.037 24.000,22.009 L24.000,9.009 L26.000,9.009 L26.000,22.009 C26.000,24.221 25.838,25.674 23.619,27.002 ZM6.000,12.009 L13.000,12.009 L13.000,14.009 L6.000,14.009 L6.000,12.009 ZM20.000,22.009 L6.000,22.009 L6.000,20.010 L20.000,20.010 L20.000,22.009 ZM6.000,16.010 L20.000,16.010 L20.000,18.010 L6.000,18.010 L6.000,16.010 ZM13.000,3.612 C11.774,5.646 9.543,7.010 7.000,7.010 L0.000,7.010 L0.000,5.009 L7.000,5.009 C9.757,5.009 12.000,2.766 12.000,0.009 L14.000,0.009 C14.000,2.766 16.243,5.009 19.000,5.009 L26.000,5.009 L26.000,7.010 L19.000,7.010 C16.457,7.010 14.226,5.646 13.000,3.612 Z"/>
    </symbol>
    <symbol id="svg-symbols" viewBox="0 0 100 100">
       <symbol id="chart" viewBox="0 0 32 32"> <metadata><?xpacket begin="﻿" id="W5M0MpCehiHzreSzNTczkc9d"?> <x:xmpmeta xmlns:x="adobe:ns:meta/" x:xmptk="Adobe XMP Core 5.6-c138 79.159824, 2016/09/14-01:09:01        "> <rdf:RDF xmlns:rdf="http://www.w3.org/1999/02/22-rdf-syntax-ns#"> <rdf:Description rdf:about=""/> </rdf:RDF> </x:xmpmeta> <?xpacket end="w"?></metadata> <path id="Chart" class="cls-1" d="M1152,1491.99a14,14,0,1,1,0-27.99v2a12,12,0,1,0,12,12h2A14.013,14.013,0,0,1,1152,1491.99Zm18-15.99h-16v-16h1c7.71,0,15,7.28,15,15v1Zm-14-2.01h11.96a13.9,13.9,0,0,0-11.96-11.95v11.95Z" transform="translate(-1138 -1460)"/> </symbol> <symbol id="chemical-glass" viewBox="0 0 26 32"> <metadata><?xpacket begin="﻿" id="W5M0MpCehiHzreSzNTczkc9d"?> <x:xmpmeta xmlns:x="adobe:ns:meta/" x:xmptk="Adobe XMP Core 5.6-c138 79.159824, 2016/09/14-01:09:01        "> <rdf:RDF xmlns:rdf="http://www.w3.org/1999/02/22-rdf-syntax-ns#"> <rdf:Description rdf:about=""/> </rdf:RDF> </x:xmpmeta> <?xpacket end="w"?></metadata> <path id="Chemical_Glass" data-name="Chemical Glass" class="cls-1" d="M1160.96,1175h-11.99v-2h11.99v2Zm4.36,30h-20.69l-0.29-.29a8.137,8.137,0,0,1-.02-11.42l6.65-6.7V1177h1.99v10.41l-7.23,7.3a6.137,6.137,0,0,0-.25,8.29h18.99a6.157,6.157,0,0,0-.25-8.29l-7.23-7.3V1177h1.99v9.59l6.65,6.7a8.091,8.091,0,0,1-.02,11.42Zm-19.12-4.68a4.208,4.208,0,0,1-.21-1.33,3.978,3.978,0,0,1,1.16-2.87l6.99-7,1.42,1.41-7,7a2.081,2.081,0,0,0-.58,1.46,2.555,2.555,0,0,0,.11.69Z" transform="translate(-1142 -1173)"/> </symbol> <symbol id="tools" viewBox="0 0 32 32"> <metadata><?xpacket begin="﻿" id="W5M0MpCehiHzreSzNTczkc9d"?> <x:xmpmeta xmlns:x="adobe:ns:meta/" x:xmptk="Adobe XMP Core 5.6-c138 79.159824, 2016/09/14-01:09:01        "> <rdf:RDF xmlns:rdf="http://www.w3.org/1999/02/22-rdf-syntax-ns#"> <rdf:Description rdf:about=""/> </rdf:RDF> </x:xmpmeta> <?xpacket end="w"?></metadata> <path id="Tools" class="cls-1" d="M1429.01,1176.76h0a2.965,2.965,0,0,1-2.12-.89l-1.41-1.42,4.23-4.28,1.42,1.43a3.03,3.03,0,0,1,0,4.27A2.982,2.982,0,0,1,1429.01,1176.76Zm-0.71-2.31a0.99,0.99,0,0,0,.71.29h0a0.967,0.967,0,0,0,.7-0.29,1.022,1.022,0,0,0,.3-0.72,1,1,0,0,0-.3-0.71h0Zm7.75,7.58-6.32-6.15,1.38-1.45,6.33,6.15Zm15.24,15.65-5.73-6.05,1.41-1.42,5.73,6.05Zm0.71,4.33a4.968,4.968,0,0,1-3.53-1.47l-6.34-6.68,1.41-1.42,6.35,6.67a2.979,2.979,0,0,0,4.23,0,3.051,3.051,0,0,0-.01-4.29l-6.33-6.66,1.41-1.42,6.34,6.66a5.076,5.076,0,0,1,0,7.13A4.961,4.961,0,0,1,1452,1202.01Zm-3.49-16.7h0a6.9,6.9,0,0,1-4.95-2.07,7.086,7.086,0,0,1,0-9.97l1.83-1.85,1.41,1.43-1.83,1.84a5.082,5.082,0,0,0,0,7.13,4.962,4.962,0,0,0,3.54,1.47h0a4.956,4.956,0,0,0,3.53-1.47l1.82-1.85,1.42,1.43-1.83,1.84A6.891,6.891,0,0,1,1448.51,1185.31Zm6.77-3.91-2.12-2.14-0.71.71a3.918,3.918,0,0,1-2.82,1.19h-0.01a3.959,3.959,0,0,1-2.82-1.19,4.056,4.056,0,0,1,0-5.7l0.71-.71-2.12-2.14,1.41-1.42,3.53,3.56-2.12,2.14a2.015,2.015,0,0,0,1.41,3.44h0.01a1.983,1.983,0,0,0,1.41-.59l2.12-2.14,3.53,3.56Zm-24.24,16.49h-2v-2.02h2v2.02Zm11.09-9.82-3.97-3.95,1.41-1.44,3.96,3.96Zm-12.12,13.88a4.922,4.922,0,0,1-3.53-1.47,5.058,5.058,0,0,1,0-7.13l0.11-.1,10.34-7.58,1.18,1.63-10.27,7.53a3.032,3.032,0,0,0,.05,4.22,3.03,3.03,0,0,0,4.18.05l7.46-10.35,1.62,1.18-7.61,10.55A4.939,4.939,0,0,1,1430.01,1201.95Z" transform="translate(-1425 -1170)"/> </symbol>
    </symbol>
    <symbol id="tools" viewBox="0 0 32 32">
       <metadata><?xpacket begin="﻿" id="W5M0MpCehiHzreSzNTczkc9d"?> <x:xmpmeta xmlns:x="adobe:ns:meta/" x:xmptk="Adobe XMP Core 5.6-c138 79.159824, 2016/09/14-01:09:01        "> <rdf:RDF xmlns:rdf="http://www.w3.org/1999/02/22-rdf-syntax-ns#"> <rdf:Description rdf:about=""/> </rdf:RDF> </x:xmpmeta> <?xpacket end="w"?></metadata>  <path id="Tools" class="cls-1" d="M1429.01,1176.76h0a2.965,2.965,0,0,1-2.12-.89l-1.41-1.42,4.23-4.28,1.42,1.43a3.03,3.03,0,0,1,0,4.27A2.982,2.982,0,0,1,1429.01,1176.76Zm-0.71-2.31a0.99,0.99,0,0,0,.71.29h0a0.967,0.967,0,0,0,.7-0.29,1.022,1.022,0,0,0,.3-0.72,1,1,0,0,0-.3-0.71h0Zm7.75,7.58-6.32-6.15,1.38-1.45,6.33,6.15Zm15.24,15.65-5.73-6.05,1.41-1.42,5.73,6.05Zm0.71,4.33a4.968,4.968,0,0,1-3.53-1.47l-6.34-6.68,1.41-1.42,6.35,6.67a2.979,2.979,0,0,0,4.23,0,3.051,3.051,0,0,0-.01-4.29l-6.33-6.66,1.41-1.42,6.34,6.66a5.076,5.076,0,0,1,0,7.13A4.961,4.961,0,0,1,1452,1202.01Zm-3.49-16.7h0a6.9,6.9,0,0,1-4.95-2.07,7.086,7.086,0,0,1,0-9.97l1.83-1.85,1.41,1.43-1.83,1.84a5.082,5.082,0,0,0,0,7.13,4.962,4.962,0,0,0,3.54,1.47h0a4.956,4.956,0,0,0,3.53-1.47l1.82-1.85,1.42,1.43-1.83,1.84A6.891,6.891,0,0,1,1448.51,1185.31Zm6.77-3.91-2.12-2.14-0.71.71a3.918,3.918,0,0,1-2.82,1.19h-0.01a3.959,3.959,0,0,1-2.82-1.19,4.056,4.056,0,0,1,0-5.7l0.71-.71-2.12-2.14,1.41-1.42,3.53,3.56-2.12,2.14a2.015,2.015,0,0,0,1.41,3.44h0.01a1.983,1.983,0,0,0,1.41-.59l2.12-2.14,3.53,3.56Zm-24.24,16.49h-2v-2.02h2v2.02Zm11.09-9.82-3.97-3.95,1.41-1.44,3.96,3.96Zm-12.12,13.88a4.922,4.922,0,0,1-3.53-1.47,5.058,5.058,0,0,1,0-7.13l0.11-.1,10.34-7.58,1.18,1.63-10.27,7.53a3.032,3.032,0,0,0,.05,4.22,3.03,3.03,0,0,0,4.18.05l7.46-10.35,1.62,1.18-7.61,10.55A4.939,4.939,0,0,1,1430.01,1201.95Z" transform="translate(-1425 -1170)"/>
    </symbol></svg>
